<?xml version="1.0" standalone="no"?>
<!DOCTYPE svg PUBLIC "-//W3C//DTD SVG 20010904//EN"
 "http://www.w3.org/TR/2001/REC-SVG-20010904/DTD/svg10.dtd">
<svg version="1.0" xmlns="http://www.w3.org/2000/svg"
 width="340.000000pt" height="330.000000pt" viewBox="0 0 340.000000 330.000000"
 preserveAspectRatio="xMidYMid meet">
<metadata>
Created by potrace 1.16, written by Peter Selinger 2001-2019
</metadata>
<g transform="translate(0.000000,330.000000) scale(0.100000,-0.100000)"
fill="#000000" stroke="none">
<path d="M2690 3281 c-14 -10 -41 -27 -60 -38 -19 -10 -57 -34 -85 -52 -72
-46 -273 -141 -306 -144 -22 -2 -32 -23 -20 -45 13 -23 -10 -44 -26 -23 -8 10
-12 12 -13 4 0 -7 -7 -13 -15 -13 -8 0 -15 -7 -15 -16 0 -14 -2 -14 -16 -3
-14 12 -14 14 4 20 39 15 30 25 -20 24 -37 -1 -53 -6 -60 -19 -8 -14 -17 -16
-43 -12 -19 4 -36 2 -40 -4 -3 -5 -1 -10 5 -10 6 0 8 -5 5 -10 -4 -6 -12 -5
-21 4 -16 17 -19 30 -4 21 6 -3 10 -2 10 3 0 6 -7 13 -16 16 -10 4 -14 12 -10
22 7 17 -9 34 -85 92 -110 83 -190 124 -290 147 -67 15 -149 -1 -133 -27 4 -6
3 -8 -4 -4 -6 3 -18 -4 -26 -16 -13 -18 -16 -19 -16 -5 0 9 -4 17 -10 17 -5 0
-10 -4 -10 -10 0 -5 -7 -10 -16 -10 -8 0 -12 -4 -9 -10 9 -15 -2 -12 -33 8
l-27 17 16 -25 c20 -31 14 -60 -7 -33 -13 17 -13 17 -14 -3 0 -12 -12 -32 -26
-45 -27 -26 -74 -120 -74 -149 0 -10 -6 -21 -12 -23 -10 -4 -10 -6 0 -6 6 -1
12 -8 12 -17 0 -14 -3 -14 -16 -4 -12 11 -18 10 -32 -4 -16 -16 -16 -17 1 -10
10 3 17 1 17 -6 0 -6 5 -8 10 -5 6 3 10 -1 10 -9 0 -9 -6 -16 -14 -16 -8 0
-16 -7 -20 -15 -3 -8 -17 -20 -31 -25 -24 -9 -35 -30 -15 -30 6 0 10 -4 10 -9
0 -4 -12 -7 -28 -6 -41 3 -44 4 -36 16 5 8 1 8 -14 0 -14 -7 -23 -8 -27 -1 -3
5 -3 10 2 10 4 0 -3 7 -15 16 -12 8 -26 13 -31 10 -18 -11 -61 13 -61 34 0 11
-7 20 -15 20 -9 0 -12 -6 -9 -15 4 -8 1 -15 -5 -15 -6 0 -11 6 -11 14 0 8 -5
18 -11 22 -8 4 -9 -3 -4 -25 5 -23 3 -31 -7 -31 -17 1 -48 24 -48 37 0 11 -55
23 -105 23 -20 0 -35 7 -43 21 -10 16 -21 20 -50 17 -27 -2 -37 1 -37 11 0 8
-6 16 -12 19 -7 2 -13 -4 -13 -13 0 -14 -6 -16 -35 -11 -23 5 -45 1 -67 -9
l-33 -16 24 19 c17 14 20 21 12 27 -7 4 -16 16 -20 27 -4 12 -27 32 -52 45
-35 20 -38 24 -16 19 16 -4 34 -2 41 3 17 14 59 2 47 -13 -8 -9 3 -12 41 -13
37 -1 55 -6 65 -19 7 -9 16 -14 20 -10 4 4 1 11 -7 16 -21 13 3 62 26 53 15
-5 15 -7 0 -15 -9 -5 -14 -14 -11 -19 4 -5 12 -6 18 -2 23 14 57 12 57 -3 0
-10 -6 -13 -17 -10 -21 6 -51 -9 -40 -20 4 -4 23 -2 42 4 34 10 59 7 109 -14
14 -5 17 -4 11 6 -5 8 -3 11 6 8 8 -3 22 -1 32 4 10 5 17 5 17 -1 0 -5 -6 -12
-12 -15 -7 -3 -4 -5 7 -5 37 2 42 -1 41 -23 -1 -15 6 -23 19 -26 15 -2 17 -1
6 7 -12 8 -12 14 -2 40 7 16 11 36 8 43 -3 7 -6 3 -6 -9 -1 -15 -7 -23 -19
-23 -9 0 -23 10 -31 23 -13 20 -13 21 3 8 9 -8 19 -11 22 -8 7 7 -22 22 -59
31 -20 5 -27 3 -22 -5 6 -8 -4 -9 -34 -4 -36 6 -40 5 -35 -10 6 -15 4 -15 -14
-4 -15 10 -18 16 -9 21 18 12 -9 26 -50 26 -19 0 -37 3 -40 6 -3 3 -12 1 -20
-5 -10 -9 -18 -8 -31 5 -21 18 -42 21 -42 5 0 -7 -14 -8 -43 -4 -52 9 -60 14
-49 28 5 7 9 19 9 29 0 13 -4 14 -21 5 -12 -7 -24 -16 -27 -20 -3 -4 -20 -10
-37 -12 -26 -3 -34 1 -51 29 -11 18 -19 42 -16 54 2 12 0 22 -6 22 -5 0 -9 -8
-10 -17 -1 -12 -4 -10 -9 7 -4 14 -8 19 -9 13 -1 -16 -37 -17 -47 -2 -3 6 -2
14 4 18 6 3 -8 17 -31 30 -28 16 -37 19 -29 8 8 -9 23 -19 34 -23 19 -6 18 -7
-8 -23 -20 -13 -31 -15 -36 -7 -11 16 -10 26 3 26 5 0 7 -4 4 -10 -3 -6 1 -7
10 -4 18 7 18 7 -14 24 -15 8 -21 8 -17 1 4 -6 2 -12 -3 -12 -26 -3 -30 -4
-37 -12 -4 -4 -13 5 -20 20 l-12 28 1 -32 c1 -19 7 -33 15 -33 6 0 12 -4 12
-10 0 -5 -7 -10 -16 -10 -8 0 -13 -4 -10 -9 7 -10 56 9 56 22 0 5 -4 5 -10 2
-5 -3 -10 -2 -10 3 0 6 7 13 16 16 8 3 12 2 9 -3 -6 -10 56 -73 64 -65 3 2 -1
10 -7 16 -14 14 -16 28 -3 28 10 0 27 -39 22 -54 -1 -5 5 -4 13 3 13 11 17 10
22 -3 9 -24 -2 -31 -29 -18 -12 6 -34 11 -49 12 -74 1 -81 2 -67 11 11 6 8 9
-9 9 l-23 0 1 -173 2 -174 39 -1 c22 -1 49 -7 60 -13 11 -6 27 -8 34 -5 8 3
16 0 19 -7 3 -9 7 -9 13 -1 17 23 49 25 76 4 21 -16 34 -20 62 -14 45 8 125
-4 125 -19 0 -21 17 -40 29 -32 9 5 7 11 -6 21 -16 12 -13 13 29 14 26 0 50
-4 53 -10 3 -5 13 -10 21 -10 8 0 13 4 9 10 -3 6 5 6 22 0 66 -20 148 -17 101
4 -17 8 63 0 137 -13 33 -6 69 -13 79 -14 11 -2 22 -9 24 -16 3 -10 -6 -12
-38 -7 -24 3 -40 3 -37 0 3 -4 24 -9 47 -11 36 -4 40 -3 40 17 0 19 2 21 16 9
9 -7 51 -15 100 -17 64 -3 84 -8 84 -19 0 -8 4 -12 9 -9 5 3 12 -1 15 -10 5
-13 -3 -14 -49 -10 -30 2 -55 0 -55 -5 0 -14 -62 -11 -93 5 -15 8 -27 10 -27
5 0 -5 -12 -3 -27 4 -41 21 -237 17 -280 -6 -21 -11 -56 -17 -100 -18 -37 0
-77 -4 -88 -8 -12 -5 -31 -3 -48 6 -17 9 -33 11 -40 5 -24 -17 -94 -33 -157
-34 -66 -1 -190 11 -190 19 0 2 5 13 10 24 9 15 7 19 -5 19 -12 0 -15 -10 -13
-44 1 -40 4 -45 32 -54 l31 -10 -32 -1 c-30 -1 -33 -4 -33 -31 0 -25 4 -30 35
-36 41 -7 53 -1 35 20 -20 25 11 48 60 44 22 -2 40 -7 40 -13 0 -10 -4 -12
-45 -14 -14 0 -25 -7 -25 -15 0 -18 -26 -39 -53 -43 -45 -7 -47 -10 -47 -87 0
-81 7 -92 52 -87 29 3 68 -14 68 -30 0 -6 -7 -6 -19 1 -11 5 -36 10 -57 10
-31 0 -35 -2 -24 -15 10 -12 10 -15 -4 -15 -12 0 -16 -9 -16 -34 0 -19 4 -38
10 -41 5 -3 10 -14 9 -23 0 -14 -2 -13 -8 3 -5 12 -9 -30 -10 -101 -1 -91 2
-123 11 -126 11 -4 271 -1 303 3 6 1 15 0 20 -1 6 -2 45 0 87 4 58 6 78 12 81
25 4 14 5 14 6 -1 1 -18 21 -26 21 -9 0 11 51 12 65 1 21 -17 82 -20 101 -5
34 26 36 16 5 -27 -51 -71 -72 -147 -81 -298 -5 -74 -11 -144 -14 -155 -26
-109 -29 -146 -12 -164 15 -16 15 -31 6 -137 -6 -65 -16 -139 -22 -164 -6 -25
-11 -123 -10 -225 0 -164 4 -197 36 -363 20 -101 37 -209 38 -241 2 -39 7 -57
14 -54 7 2 15 -1 19 -7 4 -6 18 -16 32 -21 14 -5 23 -12 20 -16 -4 -3 -18 2
-31 11 -25 16 -79 17 -94 1 -4 -5 -1 -5 6 -1 9 5 12 3 11 -5 -2 -8 0 -26 4
-41 l7 -28 125 0 c114 0 124 1 119 18 -5 16 -5 16 9 0 8 -10 16 -18 18 -18 2
0 4 27 4 59 1 33 -2 58 -6 55 -3 -2 -14 22 -24 53 -16 50 -17 65 -6 117 7 33
19 74 27 91 l15 30 -21 -24 c-11 -13 -20 -31 -20 -40 0 -9 -7 -34 -14 -56
l-14 -40 -4 55 c-2 30 -2 170 0 311 3 250 3 257 22 252 11 -3 20 -12 20 -19 0
-8 7 -17 15 -20 12 -5 12 -10 3 -27 -11 -21 -10 -22 9 -4 20 17 21 17 25 0 3
-10 1 -27 -3 -38 -7 -19 -8 -19 -8 2 -1 15 -6 21 -15 17 -8 -3 -12 -12 -9 -20
3 -9 -1 -14 -13 -14 -16 0 -15 -2 4 -23 12 -13 22 -30 22 -39 0 -9 7 -21 15
-28 8 -7 15 -28 15 -49 l-1 -36 -13 31 c-18 41 -39 55 -31 21 4 -14 2 -28 -4
-31 -17 -11 -14 -153 3 -159 23 -9 27 4 20 67 -6 55 -5 60 8 48 9 -7 18 -9 20
-5 3 4 3 1 0 -7 -2 -8 -6 -23 -9 -32 -3 -10 6 -27 22 -42 24 -23 26 -30 24
-98 -1 -40 -9 -91 -17 -113 -8 -22 -14 -48 -14 -57 0 -10 -3 -20 -9 -23 -6 -4
-6 -13 0 -24 6 -11 6 -33 1 -57 -16 -68 -13 -84 15 -84 19 0 25 5 25 21 0 17
4 20 22 15 13 -3 27 -6 32 -6 4 0 6 -7 2 -15 -5 -13 68 -15 614 -15 559 0 619
2 613 16 -5 13 4 15 68 13 77 -3 99 3 99 26 0 15 -22 25 -54 25 -20 0 -26 10
-45 77 -12 43 -31 93 -41 111 -11 17 -18 38 -16 45 1 6 1 8 -2 4 -2 -5 -26 12
-52 38 -45 45 -47 48 -31 64 10 10 24 20 32 23 11 4 15 26 17 88 1 46 4 92 8
103 5 17 3 19 -12 12 -11 -4 -26 -9 -34 -12 -11 -3 -15 -17 -15 -44 0 -35 2
-39 19 -35 18 5 18 4 2 -12 -16 -16 -18 -16 -36 8 -12 15 -20 19 -20 11 0 -8
-3 -11 -7 -7 -5 4 -8 54 -8 109 -1 56 -5 112 -9 125 -5 14 -4 22 3 22 5 0 8
-6 5 -13 -3 -8 3 -13 15 -13 20 0 20 0 1 21 -29 31 -25 36 21 20 54 -19 123
-15 127 8 2 10 -3 17 -12 17 -11 0 -16 9 -16 29 0 16 -7 36 -15 45 -21 21 -19
24 18 34 29 7 32 12 30 43 -1 23 1 18 8 -16 5 -27 16 -84 24 -125 28 -144 74
-347 119 -524 25 -98 50 -214 57 -257 l11 -79 104 0 c76 0 104 3 104 13 0 8 4
7 10 -3 8 -12 10 -11 10 8 0 12 5 22 10 22 6 0 10 9 10 20 0 11 -4 20 -8 20
-12 0 -32 46 -32 72 0 16 -3 18 -14 9 -11 -9 -13 1 -15 56 0 38 -3 86 -6 108
-2 22 -7 74 -10 115 -9 131 -16 172 -51 340 -10 47 -26 93 -35 103 -16 17 -35
81 -31 100 1 4 -7 26 -17 48 -21 42 -36 98 -32 113 1 5 -3 12 -9 16 -6 4 -13
27 -16 51 -3 29 -1 38 4 25 6 -15 11 -16 16 -7 5 7 4 17 -2 23 -6 6 -8 16 -6
23 3 6 1 30 -4 52 -8 34 -6 46 8 69 18 26 18 28 0 68 -19 43 -43 144 -60 256
-10 63 -20 105 -36 144 -5 13 -4 17 4 12 6 -4 21 -2 32 4 16 8 25 8 35 0 9 -7
15 -8 20 -1 8 14 78 11 88 -3 6 -8 10 -7 14 2 2 6 13 12 23 12 10 0 22 5 25
10 4 6 11 7 17 4 6 -4 41 -8 77 -9 81 -2 84 -3 76 -14 -9 -16 12 -22 24 -7 8
9 24 11 58 6 31 -5 50 -4 55 3 4 7 14 5 30 -5 39 -25 66 -27 105 -7 38 20 73
25 73 11 0 -4 9 -8 19 -9 14 -1 18 3 14 13 -3 8 -1 14 5 14 5 0 12 -9 15 -20
5 -21 37 -28 37 -9 0 6 -7 9 -15 5 -8 -3 -15 -1 -15 4 0 15 57 12 72 -3 20
-21 98 -38 98 -22 0 7 -6 13 -12 12 -31 -1 -49 4 -44 12 3 4 17 6 31 3 24 -4
25 -2 25 42 0 27 -4 45 -9 41 -5 -3 -12 -1 -16 5 -4 6 -12 7 -18 3 -20 -13
-57 -14 -75 -4 -16 10 -15 11 3 12 11 1 24 1 29 0 5 -1 27 1 48 4 l38 7 0 64
c0 64 0 64 -25 58 -15 -4 -25 -2 -25 5 0 6 11 11 25 11 24 0 25 2 25 76 0 61
-4 80 -17 91 -17 14 -17 14 0 9 16 -5 17 22 17 470 l0 476 -27 -17 -28 -18 28
30 c15 16 27 34 27 41 0 9 -83 12 -342 12 -318 -1 -345 -2 -368 -19z m-906
-986 c-3 -14 -2 -25 4 -25 5 0 12 -10 15 -21 4 -17 3 -19 -6 -10 -16 16 -27
14 -21 -3 5 -14 102 -59 209 -97 35 -12 54 -14 62 -7 16 13 16 -2 0 -23 -7 -9
-17 -14 -23 -12 -7 2 -9 -9 -7 -29 4 -27 2 -30 -7 -18 -10 13 -11 12 -6 -3 3
-10 6 -24 6 -30 0 -8 3 -7 9 1 6 10 14 0 30 -32 22 -48 30 -53 62 -35 18 9 19
8 11 -8 -17 -31 -49 -51 -84 -55 -37 -3 -36 6 -24 -148 4 -47 8 -100 10 -119
1 -19 8 -37 14 -39 18 -6 15 -33 -5 -47 -15 -11 -16 -15 -3 -31 14 -18 14 -18
-5 -5 -39 29 -63 59 -67 82 -2 18 -10 25 -30 27 -16 2 -28 9 -28 15 0 7 -3 28
-6 48 -5 31 -3 37 15 42 20 5 21 10 17 54 -3 26 -8 75 -11 109 -8 98 -45 203
-109 306 -21 34 -34 29 -29 -11 3 -23 1 -41 -6 -45 -6 -4 -11 0 -11 11 0 15
-2 16 -10 3 -6 -9 -10 -10 -10 -3 0 6 5 15 10 18 6 3 10 11 10 16 0 6 -4 8 -8
5 -9 -5 1 85 13 123 9 30 27 26 19 -4z m-904 -121 c0 -8 -4 -12 -10 -9 -15 9
-12 -11 4 -24 9 -8 21 -8 45 0 23 8 35 8 45 0 10 -8 22 -5 50 14 l37 25 -6
-22 c-5 -19 -4 -20 5 -6 11 18 42 18 48 0 2 -7 -6 -12 -19 -12 -17 0 -20 -3
-11 -12 7 -7 8 -17 2 -29 -7 -11 -7 -20 0 -24 5 -3 10 -11 10 -18 0 -6 -6 -2
-14 8 -8 11 -11 26 -8 34 4 10 1 13 -11 8 -9 -3 -19 -2 -22 2 -4 7 -87 7 -105
0 -8 -3 -24 -7 -37 -8 -7 0 -13 -6 -13 -12 0 -6 9 -9 20 -6 11 3 20 2 20 -2 0
-3 21 -5 48 -4 38 3 43 1 24 -7 -12 -5 -36 -8 -53 -6 -17 2 -39 -4 -52 -13
-41 -32 -97 -60 -97 -50 0 6 -6 6 -19 0 -14 -8 -22 -7 -30 3 -13 16 2 32 19
21 10 -6 65 18 74 33 2 4 -26 6 -62 5 -54 -1 -60 0 -33 7 19 4 43 7 53 5 9 -2
20 1 23 6 4 5 11 6 17 3 5 -4 2 6 -8 21 -15 23 -15 28 -3 36 11 7 11 9 -3 9
-10 0 -18 -7 -18 -16 0 -12 -7 -15 -25 -12 -13 3 -26 1 -27 -4 -2 -5 -20 -5
-43 1 -22 5 -33 10 -25 10 13 1 13 2 0 11 -13 9 -13 10 1 10 8 0 21 -6 28 -12
8 -7 11 -8 8 -2 -4 8 5 10 28 7 19 -2 37 2 41 8 5 8 3 9 -7 4 -8 -5 -11 -4 -7
0 8 8 48 17 80 16 10 0 20 4 23 10 9 14 15 11 15 -7z m181 -305 c13 -7 18 -16
14 -29 -3 -10 -1 -21 4 -25 6 -3 8 0 5 8 -3 8 -1 18 5 22 6 3 11 1 11 -4 0 -6
6 -11 14 -11 8 0 22 -10 30 -21 15 -21 15 -21 24 12 l10 34 1 -37 c1 -20 -3
-39 -8 -42 -5 -3 -11 -14 -13 -24 -4 -15 -1 -18 18 -14 23 4 24 1 24 -43 0
-38 -4 -48 -20 -52 -16 -4 -20 -14 -21 -47 -1 -50 -22 -112 -38 -109 -10 3
-13 -3 -15 -37 -1 -8 -8 -15 -16 -15 -22 0 -35 59 -23 111 12 54 0 66 -25 25
-17 -28 -19 -29 -30 -10 -18 28 -30 24 -50 -18 -9 -21 -21 -41 -26 -44 -5 -4
1 -12 13 -18 12 -7 19 -16 16 -22 -9 -14 -25 -11 -25 5 0 9 -8 12 -24 9 -13
-3 -27 0 -30 6 -4 6 -1 11 7 11 18 0 45 62 51 115 7 61 23 96 41 89 8 -3 15
-1 15 5 0 6 -4 11 -10 11 -5 0 -10 5 -10 11 0 5 4 8 9 5 11 -7 33 43 24 57 -4
8 -10 3 -14 -13 -6 -20 -7 -21 -8 -5 0 11 6 33 14 49 8 15 15 37 15 47 0 21
12 24 41 8z m1129 -36 c3 -3 5 -24 6 -46 0 -23 4 -71 9 -106 6 -53 5 -63 -6
-59 -8 3 -14 16 -15 29 -2 42 -4 49 -12 49 -14 0 0 -74 18 -95 12 -14 16 -30
13 -52 -6 -38 -10 -40 -30 -15 -38 49 -54 92 -44 127 7 28 7 33 -6 28 -9 -4
-13 0 -12 8 4 18 -19 59 -32 59 -6 0 -7 -5 -3 -11 3 -6 0 -16 -7 -21 -10 -7
-8 -8 9 -5 18 4 22 2 18 -9 -3 -9 2 -23 11 -32 15 -16 15 -17 0 -20 -9 -2 -17
-5 -17 -7 0 -10 26 -62 42 -86 22 -33 12 -46 -13 -16 -15 18 -20 19 -28 8 -10
-16 -20 -3 -27 37 -5 25 -27 146 -41 220 l-6 32 84 -6 c46 -4 86 -9 89 -11z"/>
<path d="M3253 305 c0 -8 6 -15 14 -15 7 0 13 -7 13 -15 0 -8 5 -15 10 -15 6
0 10 -9 10 -20 0 -15 -7 -20 -25 -20 -18 0 -25 5 -25 20 0 26 -43 54 -71 45
-12 -4 -31 -2 -44 5 -18 10 -28 8 -61 -9 l-39 -22 55 3 c50 3 55 1 58 -19 3
-20 -1 -23 -32 -23 -20 0 -36 5 -36 10 0 18 -35 11 -48 -10 -7 -11 -21 -20
-31 -20 -23 0 -36 -59 -14 -67 7 -3 11 -9 8 -14 -3 -4 -12 -6 -19 -3 -9 3 -15
-6 -20 -28 -3 -18 -9 -45 -12 -60 -4 -18 -2 -28 5 -28 6 0 11 7 11 15 0 8 4
15 10 15 5 0 7 -7 4 -15 -4 -8 -1 -15 6 -15 6 0 9 4 5 9 -3 5 -1 12 5 16 6 4
8 10 5 15 -3 5 -1 12 5 15 6 4 8 15 5 25 -9 27 12 34 25 9 7 -13 8 -19 2 -15
-14 8 -25 -28 -17 -54 4 -14 15 -20 36 -20 27 0 29 3 29 38 0 27 3 33 10 22 5
-8 10 -25 10 -37 0 -22 3 -23 89 -23 77 0 90 2 94 18 4 15 5 14 6 -2 1 -20 1
-20 16 0 13 16 14 16 9 2 -8 -22 21 -25 30 -3 3 8 11 15 18 14 10 0 10 -2 1
-6 -22 -8 -14 -23 12 -23 21 0 25 5 25 29 0 17 -6 31 -16 35 -8 3 -12 10 -9
16 4 6 11 8 16 5 5 -4 9 39 9 104 l0 111 -60 0 c-33 0 -60 4 -60 10 0 6 -6 10
-13 10 -8 0 -14 -7 -14 -15z"/>
</g>
</svg>
