<?xml version="1.0" standalone="no"?>
<!DOCTYPE svg PUBLIC "-//W3C//DTD SVG 20010904//EN"
 "http://www.w3.org/TR/2001/REC-SVG-20010904/DTD/svg10.dtd">
<svg version="1.0" xmlns="http://www.w3.org/2000/svg"
 width="512.000000pt" height="512.000000pt" viewBox="0 0 512.000000 512.000000"
 preserveAspectRatio="xMidYMid meet">
<metadata>
Created by potrace 1.16, written by Peter Selinger 2001-2019
</metadata>
<g transform="translate(0.000000,512.000000) scale(0.100000,-0.100000)"
fill="#000000" stroke="none">
<path d="M2000 4320 c0 -18 -7 -20 -80 -20 -73 0 -80 -2 -80 -20 0 -17 -7 -20
-40 -20 -33 0 -40 -3 -40 -20 0 -18 -7 -20 -60 -20 -53 0 -60 -2 -60 -20 0
-13 -7 -20 -20 -20 -13 0 -20 -7 -20 -20 0 -13 -7 -20 -20 -20 -13 0 -20 -7
-20 -20 0 -13 -7 -20 -20 -20 -13 0 -20 -7 -20 -20 0 -13 -7 -20 -20 -20 -13
0 -20 -7 -20 -20 0 -13 -7 -20 -20 -20 -17 0 -20 -7 -20 -40 0 -33 -3 -40 -20
-40 -13 0 -20 -7 -20 -20 0 -13 -7 -20 -20 -20 -13 0 -20 -7 -20 -20 0 -13 -7
-20 -20 -20 -13 0 -20 -7 -20 -20 0 -13 -7 -20 -20 -20 -17 0 -20 -7 -20 -40
0 -33 -3 -40 -20 -40 -17 0 -20 -7 -20 -40 0 -33 -3 -40 -20 -40 -17 0 -20 -7
-20 -40 0 -33 -3 -40 -20 -40 -17 0 -20 -7 -20 -40 0 -33 -3 -40 -20 -40 -18
0 -20 -7 -20 -60 0 -53 -2 -60 -20 -60 -18 0 -20 -7 -20 -60 0 -53 -2 -60 -20
-60 -18 0 -20 -7 -20 -60 0 -53 -2 -60 -20 -60 -18 0 -20 -7 -20 -60 0 -53 -2
-60 -20 -60 -17 0 -20 -7 -20 -40 0 -33 -3 -40 -20 -40 -18 0 -20 -7 -20 -80
0 -73 -2 -80 -20 -80 -18 0 -20 -7 -20 -60 0 -53 -2 -60 -20 -60 -18 0 -20 -7
-20 -60 0 -53 -2 -60 -20 -60 -18 0 -20 -7 -20 -80 0 -73 -2 -80 -20 -80 -18
0 -20 -7 -20 -80 0 -73 -2 -80 -20 -80 -18 0 -20 -7 -20 -60 0 -53 -2 -60 -20
-60 -18 0 -20 -7 -20 -60 0 -53 -2 -60 -20 -60 -19 0 -20 -7 -20 -100 0 -93 1
-100 20 -100 20 0 20 -7 20 -320 0 -313 0 -320 -20 -320 -18 0 -20 -7 -20 -60
0 -53 -2 -60 -20 -60 -18 0 -20 -7 -20 -80 0 -73 -2 -80 -20 -80 -19 0 -20 -7
-20 -200 0 -193 -1 -200 -20 -200 -19 0 -20 -7 -20 -180 0 -173 -1 -180 -20
-180 -13 0 -20 -7 -20 -20 0 -19 7 -20 180 -20 l180 0 0 160 c0 153 1 160 20
160 13 0 20 7 20 20 0 13 -7 20 -20 20 -13 0 -20 7 -20 20 0 13 -7 20 -20 20
-13 0 -20 7 -20 20 0 18 7 20 60 20 l60 0 0 40 0 40 -60 0 c-53 0 -60 2 -60
20 0 13 7 20 20 20 13 0 20 7 20 20 0 13 7 20 20 20 13 0 20 -7 20 -20 0 -13
7 -20 20 -20 13 0 20 7 20 20 0 13 7 20 20 20 19 0 20 -7 20 -120 l0 -120 40
0 40 0 0 -60 0 -60 40 0 40 0 0 140 c0 133 1 140 20 140 18 0 20 7 20 60 0 53
-2 60 -20 60 -13 0 -20 7 -20 20 0 13 -7 20 -20 20 -13 0 -20 7 -20 20 0 13 7
20 20 20 18 0 20 7 20 60 0 53 -2 60 -20 60 -17 0 -20 7 -20 40 0 33 -3 40
-20 40 -18 0 -20 7 -20 60 0 53 -2 60 -20 60 -17 0 -20 7 -20 40 0 33 -3 40
-20 40 -17 0 -20 7 -20 40 0 33 -3 40 -20 40 -18 0 -20 7 -20 80 0 73 -2 80
-20 80 -18 0 -20 -7 -20 -60 0 -53 -2 -60 -20 -60 -13 0 -20 -7 -20 -20 0 -17
7 -20 40 -20 l40 0 0 -40 c0 -33 -3 -40 -20 -40 -17 0 -20 -7 -20 -40 0 -33
-3 -40 -20 -40 -18 0 -20 7 -20 60 0 53 -2 60 -20 60 -18 0 -20 -7 -20 -80 0
-73 -2 -80 -20 -80 -18 0 -20 -7 -20 -60 0 -53 -2 -60 -20 -60 -19 0 -20 -7
-20 -120 0 -113 -1 -120 -20 -120 -18 0 -20 -7 -20 -60 0 -53 2 -60 20 -60 13
0 20 -7 20 -20 0 -17 -7 -20 -40 -20 l-40 0 0 -60 c0 -53 -2 -60 -20 -60 -17
0 -20 -7 -20 -40 0 -33 -3 -40 -20 -40 -18 0 -20 7 -20 60 0 53 2 60 20 60 19
0 20 7 20 100 0 93 1 100 20 100 18 0 20 7 20 80 0 73 2 80 20 80 18 0 20 7
20 80 0 73 2 80 20 80 19 0 20 7 20 120 0 113 1 120 20 120 19 0 20 7 20 120
0 113 -1 120 -20 120 -19 0 -20 7 -20 140 0 133 1 140 20 140 19 0 20 7 20
120 0 113 1 120 20 120 18 0 20 7 20 60 0 53 2 60 20 60 19 0 20 7 20 160 0
153 1 160 20 160 19 0 20 7 20 120 0 113 1 120 20 120 18 0 20 7 20 60 0 53 2
60 20 60 18 0 20 7 20 80 0 73 2 80 20 80 17 0 20 7 20 40 0 33 3 40 20 40 18
0 20 7 20 60 0 53 2 60 20 60 18 0 20 7 20 60 0 53 2 60 20 60 18 0 20 7 20
60 0 53 2 60 20 60 18 0 20 7 20 60 0 53 2 60 20 60 13 0 20 -7 20 -20 0 -13
7 -20 20 -20 13 0 20 -7 20 -20 0 -13 -7 -20 -20 -20 -19 0 -20 -7 -20 -100
l0 -100 40 0 40 0 0 -60 c0 -53 2 -60 20 -60 20 0 20 -7 20 -580 0 -573 0
-580 -20 -580 -19 0 -20 -7 -20 -100 0 -93 1 -100 20 -100 19 0 20 -7 20 -160
0 -153 1 -160 20 -160 19 0 20 -7 20 -100 0 -93 1 -100 20 -100 18 0 20 -7 20
-80 0 -73 2 -80 20 -80 18 0 20 -7 20 -80 0 -73 2 -80 20 -80 17 0 20 -7 20
-40 0 -33 3 -40 20 -40 18 0 20 -7 20 -60 0 -53 2 -60 20 -60 19 0 20 -7 20
-100 0 -93 1 -100 20 -100 17 0 20 -7 20 -40 0 -33 3 -40 20 -40 17 0 20 -7
20 -40 0 -33 3 -40 20 -40 18 0 20 -7 20 -80 0 -73 2 -80 20 -80 18 0 20 -7
20 -60 l0 -60 60 0 60 0 0 100 c0 93 1 100 20 100 17 0 20 -7 20 -40 0 -33 3
-40 20 -40 17 0 20 -7 20 -40 0 -33 3 -40 20 -40 13 0 20 -7 20 -20 0 -13 7
-20 20 -20 17 0 20 7 20 40 l0 40 120 0 c113 0 120 1 120 20 0 19 7 20 140 20
133 0 140 1 140 20 0 17 7 20 40 20 33 0 40 3 40 20 0 17 7 20 40 20 33 0 40
3 40 20 0 17 7 20 40 20 33 0 40 3 40 20 0 17 7 20 40 20 33 0 40 3 40 20 0
18 7 20 60 20 53 0 60 2 60 20 0 17 7 20 40 20 33 0 40 3 40 20 0 17 7 20 40
20 33 0 40 3 40 20 0 17 7 20 40 20 33 0 40 3 40 20 0 17 7 20 40 20 33 0 40
3 40 20 0 17 7 20 40 20 33 0 40 3 40 20 0 13 7 20 20 20 19 0 20 -7 20 -180
0 -173 -1 -180 -20 -180 -19 0 -20 -7 -20 -100 l0 -100 240 0 240 0 0 140 c0
133 1 140 20 140 19 0 20 7 20 200 0 193 1 200 20 200 19 0 20 7 20 120 0 113
1 120 20 120 18 0 20 7 20 80 0 73 2 80 20 80 18 0 20 7 20 80 0 73 2 80 20
80 17 0 20 7 20 40 0 33 -3 40 -20 40 -19 0 -20 7 -20 100 0 93 -1 100 -20
100 -18 0 -20 7 -20 60 0 53 2 60 20 60 17 0 20 -7 20 -40 l0 -40 40 0 40 0 0
40 c0 33 3 40 20 40 19 0 20 7 20 200 0 193 -1 200 -20 200 -18 0 -20 -7 -20
-80 0 -73 -2 -80 -20 -80 -19 0 -20 7 -20 100 0 93 1 100 20 100 17 0 20 7 20
40 0 33 -3 40 -20 40 -13 0 -20 7 -20 20 0 13 7 20 20 20 13 0 20 7 20 20 0
13 -7 20 -20 20 -18 0 -20 7 -20 80 0 73 -2 80 -20 80 -18 0 -20 7 -20 60 0
53 -2 60 -20 60 -18 0 -20 7 -20 60 0 53 2 60 20 60 17 0 20 -7 20 -40 0 -33
3 -40 20 -40 18 0 20 -7 20 -60 0 -53 2 -60 20 -60 18 0 20 -7 20 -60 0 -53 2
-60 20 -60 18 0 20 -7 20 -60 0 -53 2 -60 20 -60 18 0 20 -7 20 -80 0 -73 2
-80 20 -80 18 0 20 -7 20 -60 0 -53 2 -60 20 -60 19 0 20 -7 20 -140 0 -133
-1 -140 -20 -140 -19 0 -20 7 -20 100 0 93 -1 100 -20 100 -19 0 -20 -7 -20
-240 0 -233 -1 -240 -20 -240 -19 0 -20 -7 -20 -160 0 -153 -1 -160 -20 -160
-17 0 -20 -7 -20 -40 0 -33 3 -40 20 -40 13 0 20 -7 20 -20 0 -13 7 -20 20
-20 18 0 20 -7 20 -80 l0 -80 -40 0 -40 0 0 -160 c0 -153 1 -160 20 -160 17 0
20 -7 20 -40 0 -33 -3 -40 -20 -40 -17 0 -20 -7 -20 -40 0 -33 3 -40 20 -40
13 0 20 7 20 20 0 13 7 20 20 20 17 0 20 -7 20 -40 0 -33 -3 -40 -20 -40 -17
0 -20 -7 -20 -40 0 -33 -3 -40 -20 -40 -18 0 -20 -7 -20 -80 l0 -80 180 0 180
0 0 120 c0 113 -1 120 -20 120 -19 0 -20 7 -20 100 0 93 -1 100 -20 100 -19 0
-20 7 -20 180 0 173 -1 180 -20 180 -20 0 -20 7 -20 380 0 373 0 380 -20 380
-19 0 -20 7 -20 240 0 233 -1 240 -20 240 -18 0 -20 7 -20 80 0 73 -2 80 -20
80 -18 0 -20 7 -20 80 0 73 -2 80 -20 80 -18 0 -20 7 -20 60 0 53 -2 60 -20
60 -18 0 -20 7 -20 60 0 53 -2 60 -20 60 -13 0 -20 7 -20 20 0 13 -7 20 -20
20 -18 0 -20 7 -20 60 0 53 -2 60 -20 60 -17 0 -20 7 -20 40 0 33 -3 40 -20
40 -18 0 -20 7 -20 60 0 53 -2 60 -20 60 -18 0 -20 7 -20 80 0 73 -2 80 -20
80 -18 0 -20 7 -20 60 0 53 -2 60 -20 60 -17 0 -20 7 -20 40 0 33 -3 40 -20
40 -13 0 -20 7 -20 20 0 13 -7 20 -20 20 -13 0 -20 7 -20 20 0 13 -7 20 -20
20 -17 0 -20 7 -20 40 0 33 -3 40 -20 40 -17 0 -20 7 -20 40 0 33 -3 40 -20
40 -13 0 -20 7 -20 20 0 13 -7 20 -20 20 -13 0 -20 7 -20 20 0 13 -7 20 -20
20 -13 0 -20 7 -20 20 0 13 -7 20 -20 20 -17 0 -20 7 -20 40 l0 40 -40 0 c-33
0 -40 3 -40 20 0 13 -7 20 -20 20 -13 0 -20 7 -20 20 0 13 -7 20 -20 20 -13 0
-20 7 -20 20 0 13 -7 20 -20 20 -13 0 -20 7 -20 20 0 13 -7 20 -20 20 -13 0
-20 7 -20 20 0 13 -7 20 -20 20 -13 0 -20 7 -20 20 0 18 -7 20 -60 20 -53 0
-60 2 -60 20 0 13 -7 20 -20 20 -13 0 -20 7 -20 20 0 18 -7 20 -60 20 -53 0
-60 2 -60 20 0 13 -7 20 -20 20 -13 0 -20 7 -20 20 0 18 -7 20 -60 20 -53 0
-60 2 -60 20 0 13 -7 20 -20 20 -13 0 -20 7 -20 20 0 18 -7 20 -80 20 -73 0
-80 2 -80 20 0 20 -7 20 -300 20 -293 0 -300 0 -300 -20z m600 -40 c0 -17 -7
-20 -40 -20 l-40 0 0 -40 0 -40 200 0 c193 0 200 -1 200 -20 0 -13 7 -20 20
-20 13 0 20 -7 20 -20 0 -13 7 -20 20 -20 13 0 20 -7 20 -20 0 -13 -7 -20 -20
-20 -13 0 -20 7 -20 20 0 13 -7 20 -20 20 -13 0 -20 7 -20 20 0 18 -7 20 -80
20 l-80 0 0 -40 c0 -33 3 -40 20 -40 13 0 20 7 20 20 0 13 7 20 20 20 13 0 20
-7 20 -20 0 -17 7 -20 40 -20 33 0 40 -3 40 -20 0 -13 -7 -20 -20 -20 -17 0
-20 -7 -20 -40 0 -33 3 -40 20 -40 13 0 20 -7 20 -20 0 -18 -7 -20 -60 -20
-53 0 -60 -2 -60 -20 0 -13 -7 -20 -20 -20 -13 0 -20 7 -20 20 0 13 7 20 20
20 13 0 20 7 20 20 0 13 7 20 20 20 13 0 20 7 20 20 0 17 -7 20 -40 20 -33 0
-40 -3 -40 -20 0 -19 -7 -20 -100 -20 -93 0 -100 1 -100 20 0 13 -7 20 -20 20
-13 0 -20 -7 -20 -20 0 -13 -7 -20 -20 -20 -13 0 -20 -7 -20 -20 0 -17 -7 -20
-40 -20 -33 0 -40 3 -40 20 0 13 7 20 20 20 13 0 20 7 20 20 0 17 -7 20 -40
20 l-40 0 0 40 c0 33 3 40 20 40 13 0 20 7 20 20 0 13 7 20 20 20 13 0 20 7
20 20 0 13 7 20 20 20 13 0 20 7 20 20 0 17 -7 20 -40 20 -33 0 -40 -3 -40
-20 0 -17 -7 -20 -40 -20 -33 0 -40 -3 -40 -20 0 -13 -7 -20 -20 -20 -13 0
-20 -7 -20 -20 0 -13 -7 -20 -20 -20 -17 0 -20 -7 -20 -40 0 -33 -3 -40 -20
-40 -19 0 -20 -7 -20 -100 l0 -100 100 0 c93 0 100 1 100 20 0 17 7 20 40 20
33 0 40 -3 40 -20 0 -13 -7 -20 -20 -20 -13 0 -20 -7 -20 -20 0 -19 -7 -20
-100 -20 -93 0 -100 -1 -100 -20 0 -19 -7 -20 -120 -20 -113 0 -120 -1 -120
-20 0 -17 -7 -20 -40 -20 -33 0 -40 -3 -40 -20 0 -17 -7 -20 -40 -20 -33 0
-40 -3 -40 -20 0 -13 -7 -20 -20 -20 -13 0 -20 -7 -20 -20 0 -13 -7 -20 -20
-20 -13 0 -20 7 -20 20 0 13 7 20 20 20 13 0 20 7 20 20 0 13 7 20 20 20 17 0
20 7 20 40 0 33 -3 40 -20 40 -17 0 -20 7 -20 40 0 33 3 40 20 40 17 0 20 7
20 40 0 33 -3 40 -20 40 -17 0 -20 7 -20 40 0 33 -3 40 -20 40 -17 0 -20 7
-20 40 0 33 3 40 20 40 13 0 20 7 20 20 0 13 7 20 20 20 17 0 20 7 20 40 0 33
3 40 20 40 13 0 20 7 20 20 0 13 7 20 20 20 13 0 20 7 20 20 0 13 7 20 20 20
13 0 20 -7 20 -20 0 -13 7 -20 20 -20 13 0 20 -7 20 -20 0 -13 7 -20 20 -20
13 0 20 7 20 20 0 13 7 20 20 20 13 0 20 7 20 20 0 13 7 20 20 20 13 0 20 7
20 20 0 13 7 20 20 20 13 0 20 -7 20 -20 0 -13 7 -20 20 -20 13 0 20 7 20 20
0 18 7 20 60 20 53 0 60 2 60 20 0 19 7 20 140 20 133 0 140 -1 140 -20z m760
-400 c0 -13 7 -20 20 -20 17 0 20 -7 20 -40 0 -33 3 -40 20 -40 13 0 20 -7 20
-20 0 -13 7 -20 20 -20 17 0 20 -7 20 -40 0 -33 3 -40 20 -40 13 0 20 -7 20
-20 0 -13 7 -20 20 -20 17 0 20 -7 20 -40 0 -33 3 -40 20 -40 13 0 20 -7 20
-20 0 -13 7 -20 20 -20 17 0 20 -7 20 -40 0 -33 3 -40 20 -40 17 0 20 -7 20
-40 0 -33 3 -40 20 -40 18 0 20 -7 20 -60 0 -53 2 -60 20 -60 13 0 20 -7 20
-20 0 -13 -7 -20 -20 -20 -13 0 -20 7 -20 20 0 13 -7 20 -20 20 -13 0 -20 7
-20 20 0 13 -7 20 -20 20 -17 0 -20 7 -20 40 l0 40 -40 0 c-33 0 -40 3 -40 20
0 13 -7 20 -20 20 -17 0 -20 7 -20 40 0 33 -3 40 -20 40 -17 0 -20 7 -20 40 0
33 -3 40 -20 40 -13 0 -20 7 -20 20 0 13 -7 20 -20 20 -13 0 -20 7 -20 20 0
19 -7 20 -120 20 -113 0 -120 1 -120 20 0 17 -7 20 -40 20 -33 0 -40 3 -40 20
0 17 -7 20 -40 20 -33 0 -40 3 -40 20 0 19 7 20 140 20 133 0 140 1 140 20 0
13 7 20 20 20 13 0 20 -7 20 -20 0 -13 7 -20 20 -20 13 0 20 -7 20 -20 0 -13
7 -20 20 -20 17 0 20 7 20 40 0 33 -3 40 -20 40 -13 0 -20 7 -20 20 0 13 -7
20 -20 20 -17 0 -20 7 -20 40 0 33 3 40 20 40 13 0 20 -7 20 -20z m-520 -200
c0 -18 7 -20 80 -20 73 0 80 -2 80 -20 0 -17 7 -20 40 -20 33 0 40 -3 40 -20
0 -17 7 -20 40 -20 33 0 40 -3 40 -20 0 -17 7 -20 40 -20 33 0 40 -3 40 -20 0
-13 7 -20 20 -20 17 0 20 -7 20 -40 0 -33 3 -40 20 -40 13 0 20 -7 20 -20 0
-13 7 -20 20 -20 17 0 20 -7 20 -40 0 -33 3 -40 20 -40 13 0 20 -7 20 -20 0
-13 7 -20 20 -20 18 0 20 -7 20 -60 0 -53 2 -60 20 -60 18 0 20 -7 20 -80 0
-73 2 -80 20 -80 19 0 20 -7 20 -120 0 -113 1 -120 20 -120 18 0 20 -7 20 -80
0 -73 2 -80 20 -80 19 0 20 -7 20 -100 0 -93 1 -100 20 -100 18 0 20 -7 20
-60 0 -53 2 -60 20 -60 18 0 20 -7 20 -80 0 -73 2 -80 20 -80 20 0 20 -7 20
-500 0 -493 0 -500 -20 -500 -18 0 -20 -7 -20 -60 0 -53 -2 -60 -20 -60 -17 0
-20 -7 -20 -40 0 -33 -3 -40 -20 -40 -13 0 -20 -7 -20 -20 0 -13 -7 -20 -20
-20 -13 0 -20 -7 -20 -20 0 -13 -7 -20 -20 -20 -13 0 -20 -7 -20 -20 0 -17 -7
-20 -40 -20 -33 0 -40 -3 -40 -20 0 -19 -7 -20 -120 -20 -113 0 -120 -1 -120
-20 0 -19 -7 -20 -140 -20 -133 0 -140 -1 -140 -20 0 -18 -7 -20 -80 -20 -73
0 -80 2 -80 20 0 18 -7 20 -60 20 -53 0 -60 2 -60 20 0 19 -7 20 -120 20 -113
0 -120 1 -120 20 0 18 -7 20 -60 20 -53 0 -60 -2 -60 -20 0 -18 -7 -20 -60
-20 -53 0 -60 -2 -60 -20 0 -13 -7 -20 -20 -20 -13 0 -20 7 -20 20 0 19 -7 20
-100 20 -93 0 -100 1 -100 20 0 13 -7 20 -20 20 -13 0 -20 7 -20 20 0 17 -7
20 -40 20 l-40 0 0 40 c0 33 -3 40 -20 40 -17 0 -20 7 -20 40 0 33 -3 40 -20
40 -18 0 -20 7 -20 80 0 73 -2 80 -20 80 -19 0 -20 7 -20 100 0 93 -1 100 -20
100 -18 0 -20 7 -20 60 0 53 -2 60 -20 60 -18 0 -20 7 -20 60 0 53 -2 60 -20
60 -17 0 -20 7 -20 40 0 33 -3 40 -20 40 -19 0 -20 7 -20 120 0 113 -1 120
-20 120 -17 0 -20 7 -20 40 0 33 3 40 20 40 18 0 20 7 20 80 0 73 2 80 20 80
13 0 20 7 20 20 0 17 7 20 40 20 33 0 40 -3 40 -20 0 -17 7 -20 40 -20 33 0
40 3 40 20 0 18 7 20 60 20 53 0 60 2 60 20 0 18 7 20 60 20 53 0 60 -2 60
-20 0 -13 7 -20 20 -20 13 0 20 7 20 20 0 18 7 20 60 20 l60 0 0 60 0 60 60 0
c53 0 60 -2 60 -20 0 -18 7 -20 60 -20 l60 0 0 -40 0 -40 40 0 c33 0 40 3 40
20 0 13 7 20 20 20 18 0 20 -7 20 -80 0 -73 -2 -80 -20 -80 -17 0 -20 -7 -20
-40 0 -33 -3 -40 -20 -40 -18 0 -20 -7 -20 -60 0 -53 -2 -60 -20 -60 -18 0
-20 -7 -20 -80 0 -73 2 -80 20 -80 13 0 20 -7 20 -20 0 -17 7 -20 40 -20 33 0
40 -3 40 -20 0 -18 7 -20 60 -20 53 0 60 2 60 20 0 18 7 20 80 20 73 0 80 2
80 20 0 17 7 20 40 20 33 0 40 3 40 20 0 13 7 20 20 20 13 0 20 7 20 20 0 17
7 20 40 20 33 0 40 3 40 20 0 13 7 20 20 20 13 0 20 7 20 20 0 13 -7 20 -20
20 -13 0 -20 7 -20 20 0 19 -7 20 -140 20 -133 0 -140 1 -140 20 0 13 -7 20
-20 20 -13 0 -20 7 -20 20 0 13 -7 20 -20 20 -17 0 -20 7 -20 40 0 33 -3 40
-20 40 -17 0 -20 7 -20 40 0 33 3 40 20 40 13 0 20 7 20 20 0 13 -7 20 -20 20
-18 0 -20 7 -20 60 0 53 -2 60 -20 60 -18 0 -20 7 -20 60 0 53 -2 60 -20 60
-17 0 -20 7 -20 40 0 33 -3 40 -20 40 -13 0 -20 7 -20 20 0 13 -7 20 -20 20
-13 0 -20 7 -20 20 0 13 -7 20 -20 20 -13 0 -20 7 -20 20 0 13 -7 20 -20 20
-13 0 -20 7 -20 20 0 17 -7 20 -40 20 -33 0 -40 3 -40 20 0 18 -7 20 -80 20
-73 0 -80 -2 -80 -20 0 -19 -7 -20 -100 -20 -93 0 -100 -1 -100 -20 0 -17 -7
-20 -40 -20 -33 0 -40 -3 -40 -20 0 -17 -7 -20 -40 -20 -33 0 -40 -3 -40 -20
0 -18 -7 -20 -60 -20 l-60 0 0 60 c0 53 -2 60 -20 60 -18 0 -20 7 -20 80 0 73
-2 80 -20 80 -18 0 -20 7 -20 60 0 53 -2 60 -20 60 -18 0 -20 7 -20 80 0 73 2
80 20 80 18 0 20 7 20 60 0 53 2 60 20 60 13 0 20 7 20 20 0 13 7 20 20 20 13
0 20 7 20 20 0 13 7 20 20 20 13 0 20 7 20 20 0 13 7 20 20 20 13 0 20 7 20
20 0 13 7 20 20 20 13 0 20 7 20 20 0 17 7 20 40 20 33 0 40 3 40 20 0 13 7
20 20 20 13 0 20 7 20 20 0 17 7 20 40 20 33 0 40 3 40 20 0 17 7 20 40 20 33
0 40 3 40 20 0 19 7 20 120 20 113 0 120 1 120 20 0 19 7 20 100 20 93 0 100
1 100 20 0 19 7 20 200 20 193 0 200 -1 200 -20z m-760 -1120 c0 -13 7 -20 20
-20 13 0 20 -7 20 -20 0 -13 7 -20 20 -20 13 0 20 -7 20 -20 0 -19 -7 -20
-120 -20 -113 0 -120 -1 -120 -20 0 -18 -7 -20 -60 -20 -53 0 -60 -2 -60 -20
0 -18 -7 -20 -60 -20 l-60 0 0 40 c0 33 3 40 20 40 13 0 20 7 20 20 0 13 7 20
20 20 13 0 20 7 20 20 0 18 7 20 80 20 73 0 80 2 80 20 0 18 7 20 80 20 73 0
80 -2 80 -20z m1800 -160 c0 -53 2 -60 20 -60 18 0 20 -7 20 -60 0 -53 2 -60
20 -60 18 0 20 -7 20 -80 l0 -80 -40 0 -40 0 0 140 c0 133 -1 140 -20 140 -18
0 -20 7 -20 60 0 53 2 60 20 60 18 0 20 -7 20 -60z m400 -1100 c0 -313 0 -320
-20 -320 -20 0 -20 7 -20 320 0 313 0 320 20 320 20 0 20 -7 20 -320z"/>
<path d="M3000 2840 c0 -18 -7 -20 -60 -20 -53 0 -60 -2 -60 -20 0 -13 -7 -20
-20 -20 -13 0 -20 -7 -20 -20 0 -13 -7 -20 -20 -20 -13 0 -20 -7 -20 -20 0
-13 -7 -20 -20 -20 -19 0 -20 -7 -20 -100 0 -93 1 -100 20 -100 13 0 20 -7 20
-20 0 -13 7 -20 20 -20 17 0 20 -7 20 -40 l0 -40 40 0 c33 0 40 -3 40 -20 0
-13 7 -20 20 -20 13 0 20 -7 20 -20 0 -13 7 -20 20 -20 13 0 20 -7 20 -20 0
-19 7 -20 160 -20 l160 0 0 40 c0 33 3 40 20 40 13 0 20 7 20 20 0 18 7 20 60
20 l60 0 0 100 0 100 -40 0 c-33 0 -40 3 -40 20 0 19 -7 20 -160 20 l-160 0 0
60 0 60 80 0 c73 0 80 2 80 20 0 13 7 20 20 20 13 0 20 -7 20 -20 0 -18 7 -20
60 -20 53 0 60 -2 60 -20 0 -17 7 -20 40 -20 33 0 40 -3 40 -20 0 -13 7 -20
20 -20 17 0 20 7 20 40 0 33 -3 40 -20 40 -13 0 -20 7 -20 20 0 13 -7 20 -20
20 -13 0 -20 7 -20 20 0 17 -7 20 -40 20 -33 0 -40 3 -40 20 0 19 -7 20 -180
20 -173 0 -180 -1 -180 -20z"/>
<path d="M2960 1520 c0 -19 -7 -20 -180 -20 -173 0 -180 -1 -180 -20 0 -17 -7
-20 -40 -20 -33 0 -40 -3 -40 -20 0 -18 -7 -20 -80 -20 -73 0 -80 -2 -80 -20
0 -13 -7 -20 -20 -20 -17 0 -20 -7 -20 -40 0 -33 3 -40 20 -40 18 0 20 -7 20
-60 l0 -60 40 0 c33 0 40 -3 40 -20 0 -20 7 -20 280 -20 273 0 280 0 280 20 0
13 7 20 20 20 18 0 20 7 20 60 0 53 -2 60 -20 60 -13 0 -20 -7 -20 -20 0 -18
-7 -20 -80 -20 -73 0 -80 -2 -80 -20 0 -17 -7 -20 -40 -20 -33 0 -40 3 -40 20
0 19 -7 20 -100 20 l-100 0 0 40 0 40 60 0 c53 0 60 2 60 20 0 19 7 20 180 20
173 0 180 1 180 20 0 19 7 20 120 20 113 0 120 1 120 20 0 13 7 20 20 20 13 0
20 7 20 20 0 13 -7 20 -20 20 -13 0 -20 7 -20 20 0 13 -7 20 -20 20 -17 0 -20
-7 -20 -40 0 -33 -3 -40 -20 -40 -13 0 -20 7 -20 20 0 18 -7 20 -80 20 -73 0
-80 2 -80 20 0 17 -7 20 -40 20 -33 0 -40 -3 -40 -20z"/>
<path d="M960 2040 c0 -93 -1 -100 -20 -100 -19 0 -20 -7 -20 -160 0 -153 1
-160 20 -160 19 0 20 7 20 120 0 113 1 120 20 120 19 0 20 7 20 120 0 113 1
120 20 120 13 0 20 7 20 20 0 17 -7 20 -40 20 l-40 0 0 -100z"/>
<path d="M1120 2020 c0 -73 -2 -80 -20 -80 -13 0 -20 -7 -20 -20 0 -13 7 -20
20 -20 19 0 20 -7 20 -120 0 -113 1 -120 20 -120 13 0 20 7 20 20 0 13 7 20
20 20 13 0 20 7 20 20 0 13 7 20 20 20 13 0 20 7 20 20 0 13 -7 20 -20 20 -19
0 -20 7 -20 160 l0 160 -40 0 -40 0 0 -80z"/>
<path d="M1360 440 c0 -53 2 -60 20 -60 19 0 20 -7 20 -100 0 -93 1 -100 20
-100 18 0 20 -7 20 -60 l0 -60 40 0 40 0 0 60 c0 53 -2 60 -20 60 -18 0 -20 7
-20 80 0 73 -2 80 -20 80 -18 0 -20 7 -20 60 0 53 -2 60 -20 60 -13 0 -20 7
-20 20 0 13 -7 20 -20 20 -18 0 -20 -7 -20 -60z"/>
</g>
</svg>
