<?xml version="1.0" standalone="no"?>
<!DOCTYPE svg PUBLIC "-//W3C//DTD SVG 20010904//EN"
 "http://www.w3.org/TR/2001/REC-SVG-20010904/DTD/svg10.dtd">
<svg version="1.0" xmlns="http://www.w3.org/2000/svg"
 width="1089.000000pt" height="1089.000000pt" viewBox="0 0 1089.000000 1089.000000"
 preserveAspectRatio="xMidYMid meet">
<metadata>
Created by potrace 1.16, written by Peter Selinger 2001-2019
</metadata>
<g transform="translate(0.000000,1089.000000) scale(0.100000,-0.100000)"
fill="#000000" stroke="none">
<path d="M0 5445 l0 -5445 5445 0 5445 0 0 5445 0 5445 -5445 0 -5445 0 0
-5445z m4904 4302 c-3 -9 3 -13 18 -12 13 1 35 -2 51 -6 15 -4 27 -4 27 2 0
15 27 10 33 -5 3 -8 14 -15 24 -16 10 0 32 -2 48 -4 17 -1 36 -4 44 -4 8 -1
11 -5 8 -9 -11 -10 13 -33 34 -33 11 0 19 -5 19 -10 0 -6 8 -13 18 -17 9 -3
38 -23 64 -44 25 -22 59 -44 74 -50 21 -7 25 -12 15 -18 -10 -7 -4 -17 25 -44
28 -25 40 -44 41 -67 1 -18 6 -37 11 -44 43 -53 95 -188 111 -282 32 -195 87
-470 108 -539 79 -265 84 -292 93 -575 6 -174 6 -296 -1 -355 -10 -92 -27
-178 -39 -205 -60 -125 -87 -172 -121 -208 -78 -81 -181 -139 -244 -137 -22 1
-66 -4 -97 -12 -32 -7 -91 -16 -130 -19 -40 -2 -93 -9 -118 -15 -31 -7 -55 -7
-72 0 -26 10 -97 77 -125 119 -8 12 -24 22 -34 22 -10 0 -25 10 -33 21 -8 12
-27 23 -43 25 -15 1 -29 7 -31 13 -2 5 -9 8 -15 5 -18 -7 -57 33 -51 51 4 11
14 13 33 8 23 -6 25 -5 13 10 -8 9 -19 15 -24 14 -6 -1 -18 11 -27 26 -16 30
-86 62 -97 46 -3 -5 -6 -27 -7 -49 -1 -44 -3 -45 -56 -29 -31 9 -41 20 -61 62
-13 29 -23 64 -22 80 1 15 -2 27 -8 27 -5 0 -10 5 -10 11 0 5 4 8 9 4 26 -16
24 125 -3 154 -9 10 -16 22 -16 27 0 5 -20 27 -45 48 -25 22 -45 46 -45 53 0
8 -7 16 -15 19 -8 4 -15 18 -15 34 0 16 -7 35 -15 44 -8 8 -15 18 -15 21 0 4
-9 20 -21 36 -11 16 -17 33 -14 39 3 5 1 10 -4 10 -6 0 -11 8 -11 18 0 11 -9
27 -20 37 -11 10 -20 15 -20 11 0 -4 -22 15 -50 42 -27 27 -50 55 -50 62 0 7
-7 10 -15 6 -16 -6 -18 -2 -9 32 4 13 14 22 25 22 11 0 19 4 19 9 0 16 118 50
178 51 57 0 112 23 119 48 3 12 10 22 17 22 6 0 4 5 -4 10 -8 5 -11 10 -6 10
5 0 3 7 -4 15 -8 10 -9 19 -3 28 6 6 15 27 22 46 9 27 8 40 -3 62 -14 28 -13
29 8 29 13 0 40 -11 60 -25 20 -14 42 -25 48 -25 5 0 8 -6 5 -14 -8 -21 2 -26
29 -16 28 11 29 7 9 -50 -16 -44 -13 -60 10 -60 7 0 21 -23 30 -51 19 -56 16
-111 -12 -212 -14 -50 -15 -64 -3 -94 14 -41 36 -66 65 -77 34 -12 177 -8 186
5 9 15 99 50 110 44 4 -3 17 7 29 22 16 20 20 38 18 72 -3 49 -21 65 -33 29
l-8 -23 -4 24 c-7 36 -31 72 -77 113 l-41 36 -1 109 0 108 -58 110 c-59 114
-111 173 -174 200 -18 8 -35 21 -39 30 -6 17 -45 38 -73 40 -8 1 -35 5 -60 9
-41 7 -95 1 -204 -20 -24 -5 -28 -3 -23 11 6 13 3 15 -13 10 -22 -7 -21 -10
-27 85 -6 103 -5 112 9 136 4 5 3 28 -2 50 -5 21 -10 54 -10 72 0 25 -4 32
-20 32 -22 0 -27 15 -9 26 8 5 8 9 -2 14 -9 6 -14 27 -14 64 0 31 -4 56 -9 56
-6 0 -1 7 10 16 13 11 14 14 3 11 -20 -6 -44 29 -25 36 7 3 22 23 33 44 48 90
59 108 83 129 14 13 31 21 38 19 6 -2 12 0 12 5 0 5 8 11 18 14 9 3 37 24 61
46 24 22 45 40 47 40 2 0 4 -8 4 -19 0 -22 35 -34 61 -20 24 13 52 12 43 -2
-3 -6 6 -3 20 6 19 13 30 15 38 7 7 -7 20 -4 44 10 19 11 41 17 50 14 9 -4 13
-2 8 5 -4 8 1 9 15 4 13 -4 28 -1 37 6 13 10 17 10 25 -2 6 -10 9 -10 9 -1 0
15 27 16 32 1 2 -7 12 -7 31 0 15 6 51 9 80 6 29 -2 60 1 68 6 20 13 29 11 23
-4z m-602 -1063 c9 -3 20 -14 23 -24 5 -14 19 -21 56 -26 39 -5 47 -9 39 -20
-9 -10 -6 -11 12 -8 23 4 23 4 2 -7 -17 -8 -37 -8 -85 3 -36 8 -83 11 -106 8
-24 -4 -43 -3 -43 2 0 4 -5 8 -11 8 -5 0 -7 -5 -3 -11 4 -7 1 -10 -7 -7 -8 3
-13 10 -12 16 2 6 -7 14 -18 17 -20 7 -20 8 -3 26 10 11 24 17 31 15 7 -3 21
-2 30 1 15 6 15 7 -3 15 -19 8 65 1 98 -8z m1792 -319 c12 -70 14 -141 10
-320 -2 -126 -6 -241 -7 -255 -17 -122 -65 -381 -85 -449 -11 -41 -13 -80 -8
-160 3 -58 9 -200 12 -316 3 -115 9 -240 15 -277 5 -37 9 -85 9 -108 0 -27 5
-43 15 -46 10 -4 15 -19 14 -43 0 -29 -2 -32 -9 -16 -6 15 -9 8 -9 -28 -1 -27
2 -46 7 -44 4 3 8 -16 8 -42 1 -25 -1 -38 -3 -28 -9 34 -23 16 -23 -29 0 -27
-4 -43 -10 -39 -5 3 -10 19 -10 36 0 16 -4 29 -8 29 -10 0 -7 123 3 139 3 6 1
11 -4 11 -6 0 -11 -6 -12 -12 -1 -7 -6 3 -11 22 -13 43 -21 173 -10 146 12
-28 23 -4 16 33 -4 17 -10 28 -15 25 -11 -7 -11 3 0 44 6 18 7 40 4 48 -12 32
-21 10 -28 -66 -4 -48 -11 -77 -17 -74 -6 4 -9 -10 -7 -34 2 -23 0 -44 -4 -48
-8 -9 -11 28 -7 121 2 61 0 68 -13 57 -12 -10 -14 -32 -11 -115 9 -227 3 -387
-15 -387 -4 0 -8 33 -8 73 0 39 -4 106 -10 147 -5 41 -6 84 -2 95 l8 20 1 -20
c0 -16 2 -17 9 -5 10 14 4 67 -9 85 -12 16 -18 124 -7 122 6 -1 12 25 13 58
15 251 27 355 54 440 41 133 91 358 77 345 -7 -6 -52 -178 -61 -232 -4 -21
-10 -40 -15 -42 -11 -7 12 120 44 239 36 131 82 337 100 450 24 146 19 374
-11 530 -4 20 -3 27 4 20 6 -5 17 -50 26 -100z m-2443 -825 c11 -58 22 -118
26 -134 10 -48 -13 -21 -26 30 -7 26 -14 44 -16 42 -5 -5 21 -112 52 -220 9
-32 22 -58 29 -58 6 0 21 -33 34 -72 12 -40 45 -142 72 -226 28 -84 48 -155
44 -159 -3 -3 -6 1 -6 10 0 9 -9 31 -19 49 -10 18 -22 48 -26 66 -4 18 -11 30
-16 26 -5 -3 -9 8 -9 25 0 16 -5 33 -12 37 -8 5 -9 2 -5 -9 3 -10 4 -17 2 -17
-10 0 -69 153 -89 232 -8 31 -20 67 -27 80 -13 25 -36 119 -45 183 -2 22 -9
65 -14 95 -5 30 -11 89 -14 130 -6 80 2 64 24 -53 16 -80 23 -66 10 19 -5 38
-9 85 -8 104 0 29 2 25 10 -20 6 -30 19 -102 29 -160z m1790 -626 c-6 -29 -13
-184 -16 -346 -6 -276 -12 -366 -36 -533 -20 -146 -20 -181 1 -320 11 -77 23
-195 27 -262 4 -78 10 -123 17 -124 6 -1 -9 -6 -34 -11 -25 -6 -52 -10 -60 -9
-64 5 -101 12 -140 26 -34 13 -50 14 -68 5 -21 -9 -29 -7 -51 12 -14 13 -20
16 -13 6 16 -21 0 -33 -27 -19 -12 7 -30 7 -51 1 -22 -6 -39 -6 -54 2 -11 6
-43 13 -71 15 -27 2 -60 11 -73 19 -18 12 -26 13 -38 3 -8 -6 -16 -10 -17 -8
-1 2 -12 18 -25 36 -27 40 -28 63 -2 63 21 0 27 -15 10 -25 -12 -7 -13 -25 -2
-25 4 0 13 14 21 31 12 28 12 33 -3 41 -9 5 -16 16 -16 24 0 8 -7 17 -15 20
-8 3 -17 14 -20 24 -6 18 -105 87 -105 74 0 -4 -6 -1 -14 5 -8 7 -13 23 -10
35 2 13 -3 29 -11 36 -8 7 -15 23 -15 36 0 23 -75 210 -91 229 -5 5 -9 27 -9
50 0 22 -7 51 -16 63 -8 12 -13 22 -10 22 3 0 -2 17 -11 37 -10 24 -11 39 -5
41 15 5 3 32 -15 32 -8 0 -11 5 -8 10 3 6 -3 22 -14 36 -12 15 -21 32 -21 38
1 6 8 0 16 -14 l15 -25 -4 33 c-3 31 -3 32 19 18 21 -14 34 -12 34 6 0 4 -7 8
-15 8 -8 0 -15 7 -15 15 0 8 -4 15 -10 15 -5 0 -10 8 -10 17 0 9 -8 25 -17 36
-17 19 -17 20 20 52 23 20 55 36 78 40 21 4 39 11 39 16 0 5 6 9 14 9 8 0 16
5 18 11 4 13 70 28 124 29 29 0 47 6 60 21 10 12 37 30 59 41 22 12 42 24 45
29 3 4 37 31 75 59 81 60 156 99 315 164 63 26 144 64 180 85 62 36 65 36 73
18 4 -11 3 -44 -2 -73z m-1466 -574 c38 -270 0 -575 -94 -745 -12 -22 -32 -58
-44 -80 -29 -53 -147 -166 -206 -198 -43 -24 -99 -41 -173 -54 -37 -6 -36 12
2 26 17 5 30 15 30 21 0 6 4 9 9 6 15 -10 213 135 209 152 -1 4 17 27 41 52
45 47 111 141 111 159 0 6 11 50 25 98 14 48 29 120 34 158 8 62 9 65 11 25 1
-25 4 -38 7 -30 2 8 7 22 10 30 2 8 6 42 9 75 9 129 5 263 -7 244 -5 -9 -9
-10 -9 -2 0 6 -3 20 -7 30 -6 16 -5 17 11 3 18 -14 18 -11 12 50 -4 36 -10 74
-13 85 -4 14 -2 17 6 10 6 -6 18 -58 26 -115z m1741 73 c-3 -16 -8 -157 -11
-315 -2 -158 -7 -299 -11 -313 -3 -14 -13 -25 -21 -25 -10 0 -13 5 -8 18 4 9
8 76 10 147 2 83 0 114 -5 85 -4 -25 -5 -50 -3 -56 2 -7 0 -15 -5 -18 -10 -6
-6 189 4 206 3 4 8 36 10 71 12 161 23 227 36 227 5 0 7 -12 4 -27z m-3010
-759 c81 -38 222 -156 285 -237 22 -29 53 -65 68 -82 59 -63 215 -274 263
-354 76 -129 263 -509 281 -572 9 -30 30 -122 47 -205 16 -82 47 -221 68 -309
l37 -160 32 -3 c33 -3 76 -39 98 -83 8 -14 24 -33 37 -41 13 -8 67 -53 120
-100 53 -47 129 -102 169 -123 102 -54 188 -144 222 -233 14 -37 49 -122 79
-189 51 -119 54 -123 88 -129 19 -3 148 -30 285 -59 138 -29 293 -58 345 -65
52 -6 102 -13 110 -15 8 -2 128 -19 265 -36 244 -32 260 -33 655 -33 277 -1
441 3 520 12 63 8 126 15 140 16 59 7 199 -76 186 -111 -3 -6 2 -25 10 -42 13
-27 13 -33 -5 -68 -25 -49 -28 -89 -8 -133 17 -38 11 -63 -8 -37 -7 10 -15 17
-19 17 -13 0 -5 -30 13 -47 23 -23 51 -106 51 -154 0 -21 -5 -61 -11 -89 -9
-40 -17 -53 -40 -66 -36 -18 -135 -51 -209 -69 -30 -7 -68 -18 -85 -23 -63
-22 -303 -72 -344 -72 -23 0 -52 -5 -64 -12 -26 -14 -89 -27 -172 -35 -33 -3
-63 -10 -66 -15 -4 -6 -49 -14 -100 -19 -52 -6 -107 -14 -124 -19 -16 -5 -39
-10 -50 -10 -53 -2 -105 -9 -117 -16 -12 -8 -32 -11 -163 -30 -27 -3 -55 -11
-62 -16 -6 -5 -23 -6 -37 -2 -16 4 -32 1 -41 -6 -11 -9 -41 -11 -105 -8 -77 5
-92 3 -100 -11 -8 -15 -9 -14 -15 2 -9 21 -25 23 -25 2 0 -8 -9 -15 -20 -15
-11 0 -20 3 -20 8 0 4 -53 8 -117 8 -65 1 -149 5 -188 9 -87 8 -220 8 -350 0
-122 -8 -159 -7 -163 5 -3 9 -132 27 -162 22 -8 -1 -54 -2 -102 -2 -48 -1 -90
-5 -93 -11 -4 -5 -16 -9 -29 -9 -13 0 -49 -9 -81 -20 -32 -11 -71 -20 -87 -20
-21 0 -28 -5 -28 -20 0 -21 -24 -27 -35 -9 -4 6 -13 8 -21 5 -7 -3 -16 -1 -19
5 -4 5 -11 7 -16 4 -18 -12 -46 6 -77 49 -18 24 -32 51 -32 60 0 9 -4 16 -10
16 -5 0 -10 7 -10 16 0 9 -9 29 -20 44 -11 16 -25 55 -31 87 -6 32 -14 60 -17
63 -12 9 -32 50 -32 65 0 9 -11 32 -24 53 -20 29 -24 47 -22 85 5 61 13 69 28
29 7 -18 16 -32 19 -32 13 0 89 -73 89 -86 0 -6 12 -16 28 -21 29 -10 52 -7
52 7 0 14 -110 120 -125 120 -7 0 -16 11 -19 25 -4 16 -21 32 -46 45 -22 11
-40 27 -40 35 0 8 -6 15 -12 15 -13 1 -55 78 -62 115 -9 45 -19 61 -47 77 -19
11 -32 28 -35 47 -4 17 -13 36 -20 42 -8 6 -14 17 -14 24 0 7 -6 15 -14 18 -7
3 -16 21 -19 40 -3 19 -16 46 -30 59 -14 14 -28 43 -32 65 -3 24 -16 49 -30
61 -13 11 -26 34 -30 50 -3 16 -19 44 -36 63 -32 36 -36 51 -16 68 13 10 93 8
157 -4 14 -3 95 -9 180 -15 91 -5 207 -20 279 -34 68 -15 130 -26 138 -26 27
0 -121 71 -212 101 -49 17 -101 41 -116 55 -16 15 -37 24 -57 24 -18 0 -52 9
-76 21 -32 15 -50 18 -63 11 -23 -12 -81 -8 -96 7 -23 23 7 45 81 58 38 6 81
17 95 25 23 12 16 13 -71 13 -70 0 -109 5 -140 18 -24 9 -47 15 -52 12 -5 -3
-12 5 -15 16 -7 19 -9 20 -17 6 -11 -21 -77 -53 -100 -49 -34 6 -18 -17 17
-24 37 -7 38 -24 1 -24 -28 0 -46 18 -46 47 0 13 -4 23 -10 23 -19 0 -10 29
13 44 12 8 42 18 67 22 25 4 68 17 95 30 28 13 75 30 105 38 l55 15 -60 2
c-33 2 -84 3 -114 3 -44 1 -56 5 -69 24 l-15 23 -34 -33 c-26 -25 -41 -32 -70
-31 -56 2 -81 46 -46 85 15 17 15 18 0 18 -11 0 -17 8 -17 23 -1 95 -13 203
-23 216 -14 17 -15 26 -2 55 5 11 3 26 -4 39 -7 11 -15 47 -18 81 -2 33 -11
74 -18 91 -8 16 -16 45 -17 64 -1 18 -8 36 -15 38 -7 3 -13 16 -13 28 0 13 -4
26 -9 29 -5 4 -7 36 -5 72 2 37 0 71 -5 78 -12 14 -51 132 -57 171 -3 17 -9
57 -14 89 -5 33 -13 62 -18 65 -20 13 -31 48 -20 59 7 7 8 12 2 12 -5 0 -11
17 -12 37 -2 21 -9 41 -17 45 -9 6 -13 23 -11 53 2 25 1 45 -3 45 -3 0 -6 17
-5 37 1 21 -5 44 -13 51 -8 8 -12 21 -9 28 9 23 -5 44 -28 45 -12 1 -15 3 -6
5 8 3 21 17 27 31 11 22 10 29 -3 44 -8 9 -14 20 -13 25 7 41 -2 54 -38 55
l-38 1 34 9 c40 12 34 22 -11 21 -29 -1 -31 0 -13 10 11 7 27 12 35 13 24 2
25 19 1 30 -22 10 -29 25 -11 25 6 0 10 7 10 15 0 8 -9 15 -20 15 -11 0 -23
-7 -26 -15 -4 -8 -14 -15 -23 -15 -12 0 -10 -5 9 -21 l25 -21 -25 6 c-32 7
-63 -10 -37 -20 9 -3 15 -10 12 -15 -3 -4 -13 -5 -21 -2 -13 5 -15 1 -10 -14
4 -14 1 -23 -8 -26 -10 -4 -16 2 -19 16 -3 18 -5 17 -6 -6 0 -16 -5 -26 -11
-22 -5 3 -10 -3 -10 -14 0 -12 5 -20 12 -19 7 2 17 -7 23 -19 5 -13 17 -24 25
-24 8 -1 2 -4 -15 -8 -25 -5 -31 -3 -37 14 -5 18 -14 -122 -10 -168 1 -10 -2
-26 -8 -35 -17 -29 -5 389 14 493 31 164 94 261 206 313 106 49 138 48 246 -4z
m2830 19 c41 -51 53 -89 43 -133 -5 -23 -8 -45 -5 -47 3 -3 8 11 11 31 4 19
14 41 22 48 14 11 14 -1 8 -107 -4 -66 -10 -123 -14 -126 -3 -4 -18 -9 -33
-13 -20 -5 -27 -2 -31 11 -3 14 -6 11 -11 -9 -9 -32 -18 -35 -36 -13 -8 10 -9
15 -2 15 6 0 9 6 6 14 -3 7 2 31 11 51 8 21 13 40 10 43 -3 3 -5 1 -5 -5 0 -6
-6 -13 -12 -16 -9 -3 -13 6 -14 27 0 17 -8 73 -18 125 -16 86 -16 95 -1 111
20 22 51 18 71 -7z m2188 -526 c50 -89 86 -179 165 -416 111 -331 151 -475
217 -791 48 -232 86 -395 109 -475 14 -51 70 -313 102 -484 l18 -94 35 -4 c73
-8 145 -90 165 -188 8 -41 -16 -75 -39 -56 -18 15 -53 11 -154 -17 -34 -9 -61
-21 -59 -26 2 -6 22 -20 45 -31 24 -12 48 -27 54 -33 7 -7 19 -12 28 -12 8 0
48 -16 87 -35 40 -19 77 -35 82 -35 17 0 59 -64 66 -100 9 -51 -37 -148 -69
-142 -25 4 -19 -4 18 -27 18 -12 39 -35 46 -51 25 -60 -9 -170 -47 -155 -8 2
-11 0 -8 -5 8 -13 -1 -13 -42 2 -18 7 -33 16 -33 21 0 4 -4 5 -10 2 -5 -3 -16
-3 -22 2 -26 16 -108 40 -108 31 0 -5 24 -20 53 -32 93 -42 174 -102 185 -138
14 -44 15 -184 2 -209 -12 -21 -32 -17 -24 5 3 8 1 17 -5 21 -6 3 -11 17 -11
31 0 15 -6 24 -15 24 -8 0 -23 4 -33 10 -38 22 -172 52 -247 55 -44 2 -109 6
-145 9 -36 3 -110 8 -165 11 -101 6 -144 15 -202 41 -17 8 -34 14 -38 14 -22
0 -95 46 -95 59 0 13 -2 13 -9 2 -6 -9 -10 -1 -13 25 -3 22 -1 45 5 51 5 7 7
24 5 38 -3 14 1 30 8 36 9 7 12 36 12 92 -1 45 1 89 3 97 2 9 -3 14 -16 14
-16 1 -19 -4 -16 -29 1 -17 8 -33 14 -37 8 -5 6 -9 -6 -14 -9 -3 -17 -12 -17
-19 0 -25 -39 -80 -69 -98 -17 -10 -52 -20 -79 -24 -65 -7 -119 21 -200 106
-83 86 -95 110 -87 171 5 38 3 48 -9 53 -21 8 -20 30 4 77 l20 40 -22 39 c-26
46 -108 98 -170 110 l-43 8 28 11 c63 26 183 9 291 -42 30 -14 63 -26 74 -26
17 0 62 -30 62 -42 0 -3 -12 -3 -27 -1 -16 2 -4 -5 25 -15 65 -24 134 -83 167
-145 9 -15 20 -27 25 -27 13 0 -10 61 -26 67 -8 3 -14 9 -14 15 0 16 -101 130
-138 156 -20 14 -50 25 -65 25 -18 0 -24 4 -18 10 7 7 -5 22 -34 45 -48 37
-53 46 -31 59 8 4 24 27 36 50 15 29 42 56 85 85 66 45 195 184 195 211 0 9 5
19 10 22 6 3 10 18 10 32 0 14 5 43 12 64 8 27 8 46 1 62 -6 13 -7 31 -1 46
11 30 0 43 -14 17 -13 -23 -42 -52 -57 -57 -6 -2 -20 -49 -31 -104 -23 -117
-62 -208 -97 -224 -19 -9 -25 -8 -29 4 -3 8 4 90 17 182 31 236 33 306 15 491
-15 147 -15 173 -1 284 21 159 48 351 80 558 15 91 29 192 32 225 3 37 25 113
58 200 29 77 63 177 76 223 12 45 23 82 25 82 2 0 19 -28 38 -63z m-3364 -77
c0 -5 6 -7 13 -5 6 3 18 1 26 -4 21 -14 -15 -62 -154 -206 -81 -84 -118 -116
-123 -107 -13 20 -45 200 -37 211 11 20 65 -16 65 -44 0 -26 17 -42 30 -29 5
5 10 27 12 49 2 22 7 46 12 53 10 16 26 15 26 -2 0 -20 -42 -120 -55 -128 -6
-5 -6 -8 2 -8 7 0 20 16 28 36 12 29 18 34 29 25 14 -12 24 4 42 69 15 54 84
128 84 90z m2260 -45 c61 -161 155 -565 132 -565 -4 0 -47 36 -97 81 -49 44
-137 120 -195 167 -140 116 -156 129 -217 186 l-52 48 27 23 c15 13 34 24 42
26 23 4 50 -12 50 -28 0 -13 3 -13 24 1 16 10 27 12 31 6 4 -6 22 3 43 20 l37
30 6 -35 c3 -20 10 -40 15 -45 10 -10 54 -2 54 9 0 4 16 25 35 47 19 21 35 42
35 47 0 17 21 5 30 -18z m985 -3275 c57 -10 164 -18 250 -19 83 -1 220 -4 305
-7 143 -5 159 -7 210 -32 40 -20 59 -37 74 -66 19 -37 19 -46 7 -194 -13 -174
-39 -319 -70 -402 -22 -59 -75 -149 -88 -151 -5 0 -17 -3 -28 -5 -53 -14 -99
5 -126 51 -12 19 -27 35 -34 35 -8 0 -18 6 -22 13 -4 7 -24 25 -43 39 -32 24
-39 26 -84 17 -33 -6 -53 -6 -60 1 -5 5 -33 10 -60 10 -28 0 -63 7 -78 14 -16
8 -28 11 -28 5 0 -5 -15 -9 -32 -8 -18 0 -27 3 -20 6 10 4 10 8 1 19 -15 18
-29 18 -29 -1 0 -20 -23 -19 -51 4 -23 18 -23 18 -54 -18 -32 -38 -75 -53 -75
-25 0 12 -5 14 -17 8 -27 -12 -309 -4 -387 11 -25 5 -52 3 -74 -5 -30 -11 -36
-10 -44 3 -6 12 -14 14 -32 7 -13 -5 -44 -7 -68 -4 -23 2 -94 6 -157 8 -73 2
-116 8 -121 15 -4 7 -11 11 -16 10 -5 -1 -16 0 -24 3 -8 3 -60 16 -115 28
-118 25 -173 39 -200 51 -11 4 -39 13 -62 19 -23 6 -45 15 -48 20 -3 6 -21 10
-38 10 -18 0 -41 7 -51 15 -11 8 -28 15 -37 15 -25 0 -84 41 -95 65 -8 17 -2
25 40 52 27 18 88 44 135 58 47 15 104 33 126 41 23 8 47 14 54 14 7 0 27 6
44 14 18 8 93 38 167 66 74 28 144 55 155 60 76 35 282 100 315 100 32 0 53
-9 102 -45 34 -25 70 -45 80 -45 21 0 85 54 93 80 10 31 42 30 81 -1 56 -45
89 -36 96 26 5 49 26 50 233 15z"/>
<path d="M5265 8940 c-3 -5 -18 -9 -33 -9 -88 1 -139 -4 -171 -17 -20 -8 -36
-14 -36 -13 0 1 -10 -1 -22 -5 -13 -4 -23 -15 -23 -24 0 -12 3 -13 12 -4 19
19 25 14 20 -18 -4 -30 -3 -31 29 -25 19 3 44 12 56 20 15 10 23 11 25 3 3 -7
18 -4 43 9 59 29 152 45 195 33 19 -5 54 -10 77 -10 23 0 45 -4 48 -10 3 -5 0
-10 -7 -10 -7 -1 -1 -8 15 -16 15 -8 27 -19 27 -24 0 -6 7 -10 15 -10 13 0 13
4 -2 28 -34 51 -52 64 -110 77 -32 7 -71 16 -87 20 -21 6 -27 5 -22 -4 4 -6 2
-11 -3 -11 -6 0 -11 4 -11 9 0 13 -28 22 -35 11z"/>
<path d="M5129 8730 c-61 -21 -104 -60 -130 -119 -25 -57 -24 -62 9 -59 21 2
27 -1 25 -16 -1 -15 4 -17 30 -12 38 8 44 13 29 28 -17 17 -15 33 3 18 8 -7
15 -18 15 -25 0 -18 72 -38 82 -22 6 9 13 7 24 -8 16 -20 16 -20 9 3 -5 18 -2
22 14 22 24 0 51 36 51 67 0 27 17 29 47 8 23 -16 21 -55 -3 -55 -7 0 -16 -5
-19 -10 -4 -7 16 -10 58 -8 55 3 63 5 54 17 -10 12 -5 13 36 8 59 -8 61 4 7
51 -28 23 -39 40 -35 52 4 13 -7 23 -52 43 -76 33 -183 41 -254 17z"/>
<path d="M4740 7749 c-36 -11 -92 -21 -125 -24 -50 -4 -64 -10 -82 -33 -33
-39 -32 -99 2 -114 28 -12 33 -28 10 -28 -22 0 -18 -25 10 -70 44 -70 64 -87
91 -82 13 2 27 8 30 13 2 5 18 6 33 3 32 -7 97 11 122 33 15 12 60 23 172 40
22 3 37 11 37 19 0 15 0 15 -49 18 -19 1 -36 7 -39 14 -2 7 -12 12 -23 12 -27
0 -99 23 -99 32 0 5 -16 8 -35 8 -24 0 -37 6 -45 20 -11 21 -13 20 70 35 19 4
58 8 87 9 28 1 62 7 75 13 12 6 46 20 73 32 47 19 48 20 18 21 -17 0 -38 7
-47 15 -8 8 -22 12 -30 9 -9 -3 -22 -1 -30 5 -25 21 -155 20 -226 0z"/>
<path d="M2949 3610 c-39 -21 -89 -73 -89 -94 0 -17 69 -47 100 -42 14 2 57
13 95 25 48 15 125 27 249 36 269 22 255 26 -103 30 l-174 2 -13 32 c-15 36
-17 36 -65 11z"/>
</g>
</svg>
